<?xml version="1.0" encoding="utf-8"?>
<!-- Generator: Adobe Illustrator 23.1.0, SVG Export Plug-In . SVG Version: 6.00 Build 0)  -->
<svg version="1.1" xmlns="http://www.w3.org/2000/svg" xmlns:xlink="http://www.w3.org/1999/xlink" x="0px" y="0px"
	 viewBox="0 0 291.7 291.7" style="enable-background:new 0 0 291.7 291.7;" xml:space="preserve">
<style type="text/css">
	.st0{fill-rule:evenodd;clip-rule:evenodd;fill:url(#SVGID_1_);}
	.st1{fill-rule:evenodd;clip-rule:evenodd;fill:#FFFFFF;}
</style>
<g id="BACKGROUND">
</g>
<g id="OBJECTS">
	<g>
		<linearGradient id="SVGID_1_" gradientUnits="userSpaceOnUse" x1="145.8445" y1="0" x2="145.8445" y2="291.689">
			<stop  offset="0" style="stop-color:#4AC14B"/>
			<stop  offset="1" style="stop-color:#06853A"/>
		</linearGradient>
		<path class="st0" d="M243.5,291.7H48.2C21.7,291.7,0,270,0,243.5V48.2C0,21.7,21.7,0,48.2,0h195.3c26.5,0,48.2,21.7,48.2,48.2
			v195.3C291.7,270,270,291.7,243.5,291.7z"/>
		<g>
			<path class="st1" d="M245.3,143.3c0,53.5-43.7,96.9-97.6,96.9c-17.1,0-33.2-4.4-47.2-12.1l-54.1,17.2l17.6-52
				c-8.9-14.6-14-31.7-14-50c0-53.5,43.7-96.9,97.6-96.9C201.6,46.4,245.3,89.8,245.3,143.3L245.3,143.3z M147.7,61.8
				c-45.3,0-82.1,36.5-82.1,81.5c0,17.8,5.8,34.3,15.6,47.8l-10.3,30.2l31.5-10c13,8.5,28.5,13.5,45.2,13.5
				c45.3,0,82.1-36.5,82.1-81.4C229.7,98.4,192.9,61.8,147.7,61.8L147.7,61.8z M197,165.6c-0.6-1-2.2-1.6-4.6-2.8
				c-2.4-1.2-14.2-6.9-16.4-7.7c-2.2-0.8-3.8-1.2-5.4,1.2c-1.6,2.4-6.2,7.7-7.6,9.3c-1.4,1.6-2.8,1.8-5.2,0.6
				c-2.4-1.2-10.1-3.7-19.3-11.8c-7.1-6.3-11.9-14.1-13.3-16.4c-1.4-2.4-0.1-3.7,1-4.8c1.1-1.1,2.4-2.8,3.6-4.2
				c1.2-1.4,1.6-2.4,2.4-4c0.8-1.6,0.4-3-0.2-4.2c-0.6-1.2-5.4-12.9-7.4-17.6c-2-4.7-4-4.6-5.4-4.6c-1.4,0-4,0.4-4,0.4s-4.8,0.6-7,3
				c-2.2,2.4-8.4,8.1-8.4,19.8c0,11.7,8.6,23,9.8,24.6c1.2,1.6,16.6,26.4,40.9,35.9c24.3,9.5,24.3,6.3,28.7,5.9
				c4.4-0.4,14.2-5.7,16.2-11.3C197.6,171.3,197.6,166.6,197,165.6L197,165.6z M197,165.6"/>
		</g>
	</g>
</g>
<g id="DESIGNED_BY_FREEPIK">
</g>
</svg>
